<mxfile host="app.diagrams.net" modified="2022-07-16T13:20:28.279Z" agent="5.0 (Windows NT 10.0; Win64; x64) AppleWebKit/537.36 (KHTML, like Gecko) Chrome/103.0.0.0 Safari/537.36" etag="JVR4JPAuxcANYUke3Qe7" version="20.1.1" type="github">
  <diagram id="tZ88gT7fxyP69qUPFYRL" name="Page-1">
    <mxGraphModel dx="1093" dy="609" grid="1" gridSize="10" guides="1" tooltips="1" connect="1" arrows="1" fold="1" page="1" pageScale="1" pageWidth="827" pageHeight="1169" math="0" shadow="0">
      <root>
        <mxCell id="0" />
        <mxCell id="1" parent="0" />
        <mxCell id="Afbstcmk1FMxce8YNhOj-1" value="" style="rounded=0;whiteSpace=wrap;html=1;" vertex="1" parent="1">
          <mxGeometry x="500" y="500" width="440" height="320" as="geometry" />
        </mxCell>
        <mxCell id="Afbstcmk1FMxce8YNhOj-18" value="" style="rounded=0;whiteSpace=wrap;html=1;" vertex="1" parent="1">
          <mxGeometry x="490" y="550" width="30" height="40" as="geometry" />
        </mxCell>
        <mxCell id="Afbstcmk1FMxce8YNhOj-22" value="" style="rounded=0;whiteSpace=wrap;html=1;" vertex="1" parent="1">
          <mxGeometry x="490" y="590" width="10" height="25" as="geometry" />
        </mxCell>
        <mxCell id="Afbstcmk1FMxce8YNhOj-23" value="" style="rounded=0;whiteSpace=wrap;html=1;" vertex="1" parent="1">
          <mxGeometry x="490" y="720" width="10" height="100" as="geometry" />
        </mxCell>
        <mxCell id="Afbstcmk1FMxce8YNhOj-24" value="" style="rounded=0;whiteSpace=wrap;html=1;" vertex="1" parent="1">
          <mxGeometry x="490" y="470" width="10" height="80" as="geometry" />
        </mxCell>
        <mxCell id="Afbstcmk1FMxce8YNhOj-25" value="" style="rounded=0;whiteSpace=wrap;html=1;" vertex="1" parent="1">
          <mxGeometry x="500" y="170" width="440" height="320" as="geometry" />
        </mxCell>
        <mxCell id="Afbstcmk1FMxce8YNhOj-26" value="" style="rounded=0;whiteSpace=wrap;html=1;rotation=45;" vertex="1" parent="1">
          <mxGeometry x="390" y="420" width="125" height="5" as="geometry" />
        </mxCell>
        <mxCell id="Afbstcmk1FMxce8YNhOj-29" value="" style="endArrow=none;html=1;rounded=0;" edge="1" parent="1">
          <mxGeometry width="50" height="50" relative="1" as="geometry">
            <mxPoint x="390" y="377" as="sourcePoint" />
            <mxPoint x="410" y="377" as="targetPoint" />
          </mxGeometry>
        </mxCell>
        <mxCell id="Afbstcmk1FMxce8YNhOj-30" value="" style="endArrow=none;html=1;rounded=0;" edge="1" parent="1">
          <mxGeometry width="50" height="50" relative="1" as="geometry">
            <mxPoint x="390" y="377" as="sourcePoint" />
            <mxPoint x="380" y="400" as="targetPoint" />
          </mxGeometry>
        </mxCell>
        <mxCell id="Afbstcmk1FMxce8YNhOj-31" value="" style="endArrow=none;html=1;rounded=0;" edge="1" parent="1">
          <mxGeometry width="50" height="50" relative="1" as="geometry">
            <mxPoint x="380" y="400" as="sourcePoint" />
            <mxPoint x="370" y="400" as="targetPoint" />
          </mxGeometry>
        </mxCell>
        <mxCell id="Afbstcmk1FMxce8YNhOj-32" value="" style="endArrow=none;html=1;rounded=0;" edge="1" parent="1">
          <mxGeometry width="50" height="50" relative="1" as="geometry">
            <mxPoint x="370" y="400" as="sourcePoint" />
            <mxPoint x="380" y="377" as="targetPoint" />
          </mxGeometry>
        </mxCell>
        <mxCell id="Afbstcmk1FMxce8YNhOj-33" value="" style="rounded=0;whiteSpace=wrap;html=1;" vertex="1" parent="1">
          <mxGeometry x="295" y="367" width="85" height="10" as="geometry" />
        </mxCell>
        <mxCell id="Afbstcmk1FMxce8YNhOj-34" value="" style="rounded=0;whiteSpace=wrap;html=1;" vertex="1" parent="1">
          <mxGeometry x="180" y="367" width="50" height="10" as="geometry" />
        </mxCell>
        <mxCell id="Afbstcmk1FMxce8YNhOj-35" value="Router" style="ellipse;whiteSpace=wrap;html=1;" vertex="1" parent="1">
          <mxGeometry x="900" y="720" width="40" height="30" as="geometry" />
        </mxCell>
        <mxCell id="Afbstcmk1FMxce8YNhOj-36" value="" style="rounded=0;whiteSpace=wrap;html=1;rotation=0;direction=south;" vertex="1" parent="1">
          <mxGeometry x="495" y="615" width="5" height="105" as="geometry" />
        </mxCell>
        <mxCell id="Afbstcmk1FMxce8YNhOj-37" value="" style="rounded=0;whiteSpace=wrap;html=1;" vertex="1" parent="1">
          <mxGeometry x="500" y="830" width="440" height="320" as="geometry" />
        </mxCell>
      </root>
    </mxGraphModel>
  </diagram>
</mxfile>
